<svg xmlns="http://www.w3.org/2000/svg" xmlns:xlink="http://www.w3.org/1999/xlink" width="309" zoomAndPan="magnify" viewBox="0 0 231.75 58.499998" height="78" preserveAspectRatio="xMidYMid meet"><defs><filter x="0%" y="0%" width="100%" filterUnits="objectBoundingBox" id="a22f17d21a" height="100%"></filter><clipPath id="fb0abaa80f"><path d="M 1 0.371094 L 213 0.371094 L 213 23 L 1 23 Z M 1 0.371094 "></path></clipPath><clipPath id="2a87fb5172"><rect x="0" width="214" y="0" height="25"></rect></clipPath></defs><g id="c6ca4a7482"><path style=" stroke:none;fill-rule:nonzero;fill:#002944;fill-opacity:0.3;" d="M 141.285156 39.839844 L 140.582031 39.664062 C 140.277344 39.582031 139.96875 39.523438 139.652344 39.488281 C 139.28125 39.441406 138.917969 39.351562 138.566406 39.222656 C 137.902344 39.039062 137.277344 38.765625 136.695312 38.398438 C 136.695312 38.398438 136.59375 38.3125 136.460938 38.3125 C 136.269531 38.28125 136.097656 38.207031 135.945312 38.089844 C 135.800781 37.972656 135.328125 37.648438 134.917969 37.386719 C 134.144531 36.90625 133.445312 36.335938 132.820312 35.675781 C 132.195312 35.019531 131.664062 34.292969 131.226562 33.496094 C 130.789062 32.703125 130.460938 31.863281 130.238281 30.984375 C 130.015625 30.101562 129.90625 29.210938 129.914062 28.300781 C 129.96875 26.445312 130.554688 24.777344 131.664062 23.289062 L 132.519531 22.054688 C 133.679688 20.957031 134.9375 19.976562 136.285156 19.117188 C 136.566406 19.03125 136.835938 18.921875 137.09375 18.777344 C 138.652344 17.9375 139.566406 17.761719 142.597656 17.675781 C 143.875 17.675781 144.492188 17.675781 144.492188 17.75 C 144.492188 17.820312 144.746094 17.878906 145.023438 17.878906 C 146.292969 18.132812 147.503906 18.550781 148.65625 19.128906 C 148.785156 19.226562 148.925781 19.289062 149.078125 19.320312 C 149.234375 19.351562 149.386719 19.351562 149.542969 19.3125 C 149.695312 19.277344 149.835938 19.207031 149.957031 19.109375 C 150.082031 19.011719 150.175781 18.890625 150.246094 18.746094 C 150.539062 18.292969 151.042969 18.085938 151.230469 18.351562 C 151.359375 20.769531 151.359375 23.191406 151.230469 25.613281 C 151.101562 25.773438 150.644531 25.804688 150.085938 25.699219 C 149.804688 25.699219 149.71875 25.480469 149.570312 24.804688 C 149.386719 23.941406 149.066406 23.132812 148.613281 22.378906 C 148.53125 22.296875 148.484375 22.199219 148.480469 22.085938 C 147.960938 21.210938 147.296875 20.472656 146.480469 19.863281 C 145.480469 19.175781 144.378906 18.886719 143.171875 18.996094 C 142.542969 18.925781 141.925781 18.976562 141.320312 19.148438 C 140.710938 19.320312 140.164062 19.605469 139.667969 19.996094 C 138.460938 20.992188 137.703125 22.257812 137.386719 23.789062 C 136.300781 28.199219 136.886719 34.328125 138.652344 36.53125 C 139.332031 37.351562 140.175781 37.929688 141.183594 38.265625 C 142.703125 38.585938 144.203125 38.519531 145.6875 38.0625 C 146.648438 37.722656 147.480469 37.179688 148.171875 36.429688 C 148.996094 35.480469 149.539062 34.394531 149.804688 33.167969 C 149.996094 32.003906 150.085938 31.902344 150.851562 31.945312 L 151.511719 31.945312 L 151.511719 32.8125 C 151.503906 33.3125 151.433594 33.800781 151.304688 34.285156 C 151.023438 35.085938 150.65625 35.84375 150.203125 36.5625 C 150.066406 36.699219 149.941406 36.84375 149.835938 37.003906 C 149.609375 37.296875 149.359375 37.566406 149.085938 37.8125 C 148.183594 38.488281 147.203125 39.019531 146.140625 39.398438 C 145.871094 39.433594 145.605469 39.5 145.347656 39.589844 C 144.007812 39.824219 142.660156 39.902344 141.300781 39.824219 Z M 181.6875 39.722656 C 179.316406 39.304688 177.207031 38.328125 175.359375 36.78125 C 174.3125 35.960938 173.449219 34.980469 172.761719 33.84375 C 172.078125 32.703125 171.621094 31.476562 171.386719 30.167969 C 171.175781 28.703125 171.289062 27.261719 171.726562 25.84375 C 172.167969 24.429688 172.886719 23.175781 173.890625 22.085938 C 174.976562 20.90625 176.222656 19.925781 177.625 19.144531 C 177.863281 19.070312 178.066406 18.953125 178.066406 18.910156 C 178.066406 18.867188 178.066406 18.804688 178.230469 18.804688 C 178.4375 18.765625 178.632812 18.691406 178.816406 18.585938 C 181.191406 17.636719 183.644531 17.355469 186.175781 17.734375 C 186.441406 17.820312 186.71875 17.859375 187 17.851562 C 187.261719 17.855469 187.511719 17.914062 187.75 18.027344 L 189.21875 18.585938 C 190.925781 19.34375 192.460938 20.359375 193.824219 21.628906 C 195.222656 23.085938 196.15625 24.792969 196.621094 26.757812 C 196.785156 27.695312 196.824219 28.636719 196.730469 29.582031 C 196.636719 30.527344 196.414062 31.441406 196.066406 32.328125 C 195.71875 33.210938 195.257812 34.03125 194.679688 34.789062 C 194.105469 35.546875 193.4375 36.210938 192.675781 36.78125 C 190.921875 38.144531 188.957031 39.074219 186.792969 39.574219 C 185.117188 39.871094 183.433594 39.910156 181.746094 39.691406 Z M 185.953125 38.253906 C 188.644531 37.253906 189.75 34.535156 189.734375 28.875 C 189.71875 23.214844 188.601562 20.171875 185.984375 19.261719 C 184.757812 18.964844 183.53125 18.964844 182.304688 19.261719 C 182.128906 19.363281 181.9375 19.421875 181.730469 19.4375 C 180.875 19.808594 180.1875 20.382812 179.671875 21.160156 C 178.515625 23.644531 178.027344 26.257812 178.199219 28.992188 C 178.1875 30.933594 178.40625 32.851562 178.863281 34.738281 C 178.976562 35.214844 179.15625 35.664062 179.402344 36.089844 C 179.644531 36.511719 179.945312 36.894531 180.296875 37.230469 C 180.652344 37.570312 181.042969 37.851562 181.476562 38.078125 C 181.914062 38.304688 182.371094 38.464844 182.847656 38.5625 C 183.910156 38.675781 184.945312 38.550781 185.953125 38.195312 Z M 13.597656 39.3125 C 13.480469 39.273438 13.375 39.210938 13.289062 39.121094 C 13.09375 38.761719 13.117188 38.417969 13.363281 38.089844 C 13.890625 37.980469 14.425781 37.945312 14.964844 37.988281 C 15.5 38.003906 16.027344 37.976562 16.554688 37.898438 C 16.777344 37.796875 16.820312 19.878906 16.554688 19.601562 C 16.289062 19.320312 16.027344 19.425781 14.964844 19.425781 C 14.414062 19.4375 13.863281 19.398438 13.320312 19.304688 C 13.097656 19.203125 13.054688 18.511719 13.320312 18.261719 C 15.578125 18.050781 17.835938 18.011719 20.101562 18.144531 L 26.78125 18.144531 L 26.78125 18.71875 C 26.78125 19.304688 26.78125 19.304688 26.265625 19.378906 C 25.695312 19.425781 25.128906 19.425781 24.558594 19.378906 C 24.117188 19.328125 23.683594 19.351562 23.25 19.453125 C 23.058594 19.601562 23.015625 37.886719 23.25 37.898438 C 24.402344 38.023438 25.550781 37.980469 26.691406 37.769531 C 27.816406 37.660156 28.835938 37.277344 29.753906 36.621094 C 30.535156 36.101562 31.140625 35.425781 31.566406 34.589844 C 31.992188 33.753906 32.1875 32.871094 32.152344 31.933594 C 32.152344 31.035156 32.3125 30.875 33.003906 30.875 C 33.695312 30.875 33.8125 30.449219 33.726562 37.179688 L 33.726562 39.238281 L 23.777344 39.238281 C 18.304688 39.238281 13.746094 39.238281 13.640625 39.238281 Z M 35.667969 39.3125 C 35.253906 39.3125 35.210938 39.195312 35.167969 38.679688 L 35.167969 38.105469 L 35.960938 38.105469 C 37.433594 37.988281 38.359375 37.222656 39.359375 35.09375 C 40.226562 33.253906 40.933594 31.785156 41.226562 31.226562 C 41.390625 30.933594 41.625 30.460938 41.757812 30.183594 L 44.289062 24.757812 C 44.714844 23.878906 45.171875 22.980469 45.273438 22.773438 C 45.363281 22.625 45.4375 22.46875 45.496094 22.304688 C 45.59375 22.054688 45.710938 21.816406 45.847656 21.585938 C 46.085938 21.15625 46.304688 20.714844 46.496094 20.261719 C 46.65625 19.894531 46.9375 19.292969 47.140625 18.9375 L 47.496094 18.292969 L 48.730469 18.292969 C 50.054688 18.292969 50.113281 18.292969 50.46875 19.042969 C 50.570312 19.277344 50.820312 19.746094 51.011719 20.085938 C 51.203125 20.421875 51.613281 21.230469 51.925781 21.863281 C 52.234375 22.496094 52.554688 23.15625 52.628906 23.332031 C 52.703125 23.511719 52.996094 24.023438 53.261719 24.570312 C 53.527344 25.113281 53.835938 25.683594 53.953125 25.863281 C 54.070312 26.039062 54.644531 27.140625 55.25 28.316406 C 57.824219 33.402344 59.664062 36.78125 59.867188 37.136719 C 59.988281 37.289062 60.058594 37.460938 60.089844 37.648438 C 60.089844 37.988281 60.648438 38.105469 61.914062 38.078125 L 63.121094 38.078125 L 63.121094 39.296875 L 62.265625 39.296875 C 61.796875 39.296875 58.78125 39.296875 55.558594 39.296875 L 49.671875 39.296875 L 49.570312 39.003906 C 49.523438 38.800781 49.523438 38.601562 49.570312 38.398438 C 49.660156 38.121094 49.761719 38.089844 51.128906 38.015625 C 51.632812 38.027344 52.125 37.949219 52.601562 37.78125 C 52.078125 36.304688 51.402344 34.90625 50.570312 33.578125 C 49.105469 33.359375 47.632812 33.308594 46.15625 33.417969 C 41.242188 33.417969 41.523438 33.417969 40.964844 34.710938 C 40.773438 35.183594 40.558594 35.644531 40.316406 36.09375 C 40.097656 36.40625 40.03125 36.75 40.125 37.121094 C 40.257812 37.828125 40.683594 38.015625 42.097656 38.03125 L 43.199219 38.03125 L 43.199219 38.621094 C 43.199219 39.015625 43.199219 39.222656 43.039062 39.253906 C 42.875 39.28125 36.078125 39.398438 35.519531 39.253906 Z M 49.761719 31.875 C 49.847656 31.757812 49.761719 31.316406 49.289062 30.609375 C 48.820312 29.902344 48.214844 28.507812 47.644531 27.289062 C 47.070312 26.066406 46.511719 25.007812 46.4375 24.921875 C 46.363281 24.832031 45.890625 24.757812 45.699219 25.230469 C 45.507812 25.699219 43.890625 29.007812 43.597656 29.507812 C 43.160156 30.207031 42.828125 30.949219 42.597656 31.742188 C 42.589844 31.894531 42.652344 32.007812 42.789062 32.078125 C 42.890625 32.078125 44.480469 32.078125 46.304688 32.078125 C 49.039062 32.078125 49.660156 32.003906 49.761719 31.84375 Z M 102.109375 39.222656 C 101.996094 39.046875 101.941406 38.855469 101.941406 38.648438 C 101.941406 38.441406 101.996094 38.25 102.109375 38.078125 C 102.367188 37.953125 102.644531 37.898438 102.933594 37.914062 C 103.695312 37.90625 104.359375 37.644531 104.917969 37.121094 C 105.316406 36.738281 105.476562 36.445312 106.59375 34.179688 C 106.824219 33.671875 107.089844 33.183594 107.390625 32.710938 C 107.476562 32.609375 107.519531 32.492188 107.523438 32.359375 C 107.53125 32.203125 107.578125 32.058594 107.667969 31.933594 C 108.242188 30.921875 108.761719 29.882812 109.230469 28.816406 C 109.597656 28.039062 110.023438 27.171875 110.171875 26.890625 C 110.285156 26.699219 110.382812 26.496094 110.464844 26.289062 C 110.464844 26.289062 110.90625 25.332031 111.421875 24.273438 C 112.597656 21.90625 112.539062 22.011719 113.007812 21.113281 C 113.230469 20.71875 113.628906 19.894531 113.890625 19.304688 L 114.394531 18.21875 L 115.671875 18.21875 C 117.027344 18.21875 117.144531 18.21875 117.378906 18.835938 C 117.503906 19.113281 117.640625 19.382812 117.792969 19.644531 C 117.9375 19.910156 118.527344 21.027344 119.070312 22.097656 C 119.617188 23.171875 120.261719 24.4375 120.542969 24.878906 C 121.175781 26.066406 121.160156 26.054688 121.925781 27.582031 C 122.324219 28.359375 122.707031 29.050781 122.792969 29.242188 L 123.234375 30.125 C 123.410156 30.476562 123.675781 31.007812 123.839844 31.300781 C 124 31.59375 124.292969 32.167969 124.5 32.578125 C 124.707031 32.992188 124.941406 33.476562 125.058594 33.679688 L 125.898438 35.285156 C 126.234375 35.960938 126.632812 36.753906 126.75 36.929688 C 126.863281 37.105469 126.941406 37.296875 126.988281 37.503906 C 126.988281 37.855469 127.632812 38.046875 128.855469 38.015625 L 130.015625 38.015625 L 130.015625 39.3125 L 116.570312 39.3125 L 116.570312 38.839844 C 116.570312 38.121094 116.730469 38.003906 118.042969 38.0625 C 119.835938 38.136719 119.9375 38.0625 119.367188 36.960938 C 118.953125 36.210938 118.851562 36.003906 118.511719 35.3125 C 118.261719 34.761719 117.984375 34.230469 117.671875 33.710938 C 117.570312 33.550781 116.878906 33.519531 113.257812 33.492188 C 108.476562 33.492188 108.492188 33.492188 108.285156 34.253906 C 108.1875 34.558594 108.054688 34.847656 107.890625 35.121094 C 107.007812 36.589844 106.960938 37.429688 107.714844 37.914062 C 108.066406 38.136719 108.273438 38.164062 109.007812 38.105469 C 109.367188 38.050781 109.722656 38.050781 110.082031 38.105469 C 110.300781 38.207031 110.316406 39.0625 110.082031 39.238281 C 107.429688 39.382812 104.777344 39.382812 102.121094 39.238281 Z M 116.6875 31.875 C 116.527344 31.246094 116.28125 30.652344 115.953125 30.09375 C 115.65625 29.566406 115.390625 29.023438 115.15625 28.464844 C 115.105469 28.292969 115.03125 28.128906 114.9375 27.976562 L 114.011719 26.140625 C 113.808594 25.632812 113.53125 25.171875 113.171875 24.757812 C 112.726562 25.171875 112.398438 25.660156 112.1875 26.230469 C 112.136719 26.390625 112.0625 26.542969 111.964844 26.683594 C 111.847656 26.890625 111.214844 28.15625 110.492188 29.433594 C 109.539062 31.359375 109.347656 31.84375 109.492188 31.992188 C 109.640625 32.136719 110.257812 32.167969 113.113281 32.136719 C 116.511719 32.136719 116.554688 32.136719 116.597656 31.828125 Z M 76.480469 39.003906 C 76.441406 38.785156 76.441406 38.570312 76.480469 38.355469 C 76.480469 38.003906 76.550781 38.003906 77.480469 37.988281 C 78.40625 37.972656 79.097656 37.738281 79.507812 37.019531 C 79.773438 36.5625 79.789062 36.003906 79.789062 28.890625 L 79.789062 21.246094 L 79.449219 20.71875 C 78.957031 20.015625 78.285156 19.609375 77.433594 19.496094 C 77.171875 19.46875 76.914062 19.40625 76.671875 19.304688 C 76.464844 19.1875 76.421875 18.46875 76.671875 18.234375 C 78.308594 18.027344 79.953125 17.980469 81.597656 18.085938 L 86.394531 18.085938 L 86.910156 18.558594 C 87.292969 18.914062 87.652344 19.296875 87.984375 19.703125 C 88.5625 20.472656 89.183594 21.203125 89.851562 21.894531 C 90.042969 22.054688 91.058594 23.214844 91.324219 23.628906 L 91.882812 24.257812 C 92.101562 24.496094 92.808594 25.289062 93.441406 26.023438 L 95.046875 27.890625 C 95.3125 28.183594 95.648438 28.566406 95.8125 28.773438 C 96.988281 30.242188 97.28125 30.417969 97.414062 30.417969 C 97.738281 27.046875 97.738281 23.675781 97.414062 20.304688 C 97.082031 19.976562 96.691406 19.734375 96.25 19.574219 C 95.804688 19.417969 95.351562 19.363281 94.882812 19.410156 L 94.03125 19.410156 L 94.03125 18.117188 L 102.121094 18.117188 C 102.210938 18.117188 102.285156 18.394531 102.285156 18.734375 C 102.285156 19.378906 102.136719 19.496094 101.488281 19.410156 C 100.632812 19.433594 99.902344 19.746094 99.296875 20.351562 L 98.945312 20.746094 L 98.945312 39.296875 L 97.707031 39.296875 C 97.21875 39.328125 96.726562 39.328125 96.238281 39.296875 C 95.691406 38.863281 95.199219 38.371094 94.765625 37.828125 L 93.132812 35.960938 C 92.472656 35.257812 91.855469 34.515625 91.28125 33.742188 C 91.132812 33.523438 90.960938 33.328125 90.765625 33.152344 C 90.46875 32.871094 89.691406 32.003906 89.027344 31.226562 C 88.367188 30.449219 87.777344 29.757812 87.734375 29.757812 C 87.691406 29.757812 87.21875 29.199219 86.703125 28.582031 C 84.9375 26.492188 82.6875 23.90625 82.585938 23.847656 C 82.449219 23.714844 82.324219 23.566406 82.214844 23.40625 C 82.050781 23.164062 81.863281 22.941406 81.65625 22.730469 C 81.394531 22.464844 81.320312 22.453125 81.1875 22.613281 C 81.007812 24.972656 80.953125 27.332031 81.023438 29.699219 C 81.023438 35.960938 81.023438 36.636719 81.289062 37.046875 C 81.554688 37.457031 82.230469 37.988281 83.496094 38.03125 C 84.761719 38.078125 84.761719 38.179688 84.6875 38.679688 C 84.6875 38.855469 84.6875 39.074219 84.6875 39.148438 C 83.347656 39.382812 82 39.4375 80.640625 39.3125 L 76.566406 39.3125 L 76.480469 39.015625 Z M 155.042969 39.003906 C 154.867188 38.648438 155.042969 38.078125 155.382812 38.0625 L 156.707031 38.0625 C 158.660156 38.0625 158.457031 39.195312 158.457031 28.699219 C 158.457031 18.203125 158.707031 19.335938 156.441406 19.335938 C 155.308594 19.335938 154.96875 19.335938 154.96875 19.144531 C 154.976562 19.03125 154.976562 18.917969 154.96875 18.804688 C 154.9375 18.675781 154.9375 18.542969 154.96875 18.410156 C 155.074219 18.175781 155.25 18.160156 161.546875 18.101562 L 168.035156 18.101562 L 168.035156 18.367188 C 168.066406 18.566406 168.066406 18.765625 168.035156 18.96875 L 168.035156 19.335938 L 166.5625 19.335938 C 166 19.332031 165.449219 19.390625 164.898438 19.511719 C 164.8125 19.601562 164.722656 23.082031 164.707031 28.65625 C 164.707031 35.914062 164.707031 37.707031 164.855469 37.855469 C 165.003906 38.003906 165.429688 38.0625 166.5625 38.089844 L 168.035156 38.089844 L 168.035156 39.207031 L 155.058594 39.207031 L 154.910156 38.898438 Z M 198.960938 39.222656 C 198.765625 38.855469 198.765625 38.488281 198.960938 38.121094 C 199.257812 38.054688 199.5625 38.019531 199.871094 38.015625 C 200.28125 38.003906 200.679688 37.917969 201.0625 37.769531 C 202.0625 37.296875 202.035156 37.519531 202.050781 28.949219 C 202.050781 24.449219 202.050781 21.070312 201.917969 20.894531 C 201.652344 20.46875 201.308594 20.125 200.878906 19.867188 C 200.453125 19.609375 199.988281 19.460938 199.488281 19.425781 C 199.03125 19.425781 199.019531 19.425781 199.019531 18.734375 L 199.019531 18.058594 L 203.917969 18.058594 C 208.332031 18.058594 208.816406 18.058594 209.007812 18.292969 C 209.523438 18.835938 212.449219 22.230469 212.996094 22.90625 C 213.332031 23.332031 213.761719 23.804688 213.921875 23.964844 C 214.082031 24.128906 214.804688 24.90625 215.480469 25.714844 C 216.15625 26.523438 217.351562 27.890625 218.101562 28.785156 C 218.5625 29.394531 219.097656 29.925781 219.703125 30.390625 C 219.878906 30.390625 219.910156 29.625 219.910156 25.496094 C 219.910156 20.921875 219.910156 20.570312 219.617188 20.21875 C 218.988281 19.621094 218.246094 19.332031 217.378906 19.351562 C 217.0625 19.34375 216.753906 19.289062 216.453125 19.1875 C 216.269531 18.855469 216.269531 18.523438 216.453125 18.1875 C 217.816406 18.058594 219.1875 18.019531 220.558594 18.070312 C 224.972656 18.070312 224.765625 18.070312 224.765625 18.804688 C 224.765625 19.175781 224.410156 19.496094 224.160156 19.363281 C 223.378906 19.347656 222.664062 19.550781 222.011719 19.984375 L 221.410156 20.351562 L 221.320312 29.757812 C 221.320312 34.929688 221.21875 39.179688 221.203125 39.207031 C 221.191406 39.238281 220.585938 39.207031 219.867188 39.207031 C 218.570312 39.207031 218.570312 39.207031 218.160156 38.78125 C 217.996094 38.632812 217.863281 38.460938 217.761719 38.265625 C 217.589844 38.027344 217.394531 37.8125 217.171875 37.621094 C 216.488281 36.941406 215.855469 36.214844 215.273438 35.445312 C 215.273438 35.445312 214.820312 34.902344 214.363281 34.402344 L 213.039062 32.933594 C 211.949219 31.625 210.097656 29.402344 209.242188 28.523438 C 208.949219 28.21875 208.679688 27.898438 208.433594 27.550781 C 208.308594 27.359375 208.160156 27.183594 207.992188 27.023438 C 207.507812 26.539062 205.535156 24.257812 204.785156 23.332031 C 204.035156 22.40625 203.800781 22.261719 203.683594 22.347656 C 203.5625 22.4375 203.609375 25.640625 203.609375 29.582031 C 203.609375 37.679688 203.609375 37.3125 204.800781 37.753906 C 205.277344 37.910156 205.769531 37.976562 206.269531 37.945312 L 207.082031 37.945312 L 207.082031 39.179688 L 203.035156 39.179688 C 200.796875 39.179688 198.929688 39.179688 198.871094 39.179688 Z M 198.960938 39.222656 "></path><g mask="url(#d1c8fbe040)" transform="matrix(1,0,0,1,12,17)"><g clip-path="url(#2a87fb5172)"><g clip-rule="nonzero" clip-path="url(#fb0abaa80f)"><path style=" stroke:none;fill-rule:nonzero;fill:#c0c0c0;fill-opacity:1;" d="M 129.238281 22.953125 L 128.53125 22.777344 C 128.226562 22.695312 127.917969 22.636719 127.605469 22.601562 C 127.230469 22.554688 126.871094 22.46875 126.515625 22.335938 C 125.851562 22.15625 125.230469 21.878906 124.648438 21.511719 C 124.648438 21.511719 124.546875 21.425781 124.414062 21.425781 C 124.222656 21.394531 124.050781 21.320312 123.898438 21.203125 C 123.75 21.085938 123.28125 20.761719 122.867188 20.5 C 122.097656 20.019531 121.398438 19.449219 120.773438 18.789062 C 120.148438 18.128906 119.617188 17.402344 119.179688 16.605469 C 118.742188 15.8125 118.414062 14.972656 118.191406 14.089844 C 117.96875 13.210938 117.859375 12.316406 117.867188 11.40625 C 117.921875 9.550781 118.507812 7.878906 119.617188 6.390625 L 120.472656 5.15625 C 121.632812 4.058594 122.890625 3.078125 124.238281 2.214844 C 124.519531 2.132812 124.789062 2.019531 125.046875 1.875 C 126.605469 1.039062 127.515625 0.863281 130.546875 0.773438 C 131.828125 0.773438 132.445312 0.773438 132.445312 0.847656 C 132.445312 0.921875 132.695312 0.980469 132.972656 0.980469 C 134.242188 1.234375 135.453125 1.648438 136.605469 2.230469 C 136.734375 2.324219 136.875 2.386719 137.027344 2.421875 C 137.183594 2.453125 137.335938 2.449219 137.492188 2.414062 C 137.644531 2.375 137.785156 2.308594 137.90625 2.207031 C 138.03125 2.109375 138.125 1.988281 138.195312 1.847656 C 138.488281 1.390625 138.988281 1.183594 139.179688 1.449219 C 139.304688 3.871094 139.304688 6.292969 139.179688 8.714844 C 139.046875 8.878906 138.59375 8.90625 138.035156 8.804688 C 137.753906 8.804688 137.667969 8.585938 137.519531 7.90625 C 137.335938 7.046875 137.015625 6.234375 136.5625 5.480469 C 136.480469 5.398438 136.433594 5.300781 136.429688 5.1875 C 135.910156 4.3125 135.246094 3.570312 134.429688 2.964844 C 133.429688 2.277344 132.328125 1.988281 131.121094 2.097656 C 130.492188 2.023438 129.878906 2.074219 129.269531 2.25 C 128.664062 2.421875 128.113281 2.703125 127.621094 3.097656 C 126.414062 4.09375 125.652344 5.359375 125.339844 6.890625 C 124.25 11.304688 124.839844 17.4375 126.605469 19.644531 C 127.285156 20.464844 128.125 21.042969 129.136719 21.382812 C 130.652344 21.699219 132.152344 21.632812 133.636719 21.175781 C 134.601562 20.835938 135.429688 20.292969 136.121094 19.542969 C 136.945312 18.59375 137.488281 17.503906 137.753906 16.277344 C 137.945312 15.113281 138.035156 15.011719 138.796875 15.054688 L 139.460938 15.054688 L 139.460938 15.925781 C 139.453125 16.421875 139.382812 16.914062 139.253906 17.394531 C 138.972656 18.195312 138.605469 18.957031 138.152344 19.675781 C 138.015625 19.808594 137.890625 19.957031 137.785156 20.117188 C 137.558594 20.410156 137.308594 20.679688 137.035156 20.925781 C 136.132812 21.601562 135.152344 22.132812 134.089844 22.511719 C 133.820312 22.550781 133.554688 22.613281 133.296875 22.703125 C 131.957031 22.9375 130.609375 23.015625 129.253906 22.941406 Z M 169.628906 22.835938 C 167.257812 22.421875 165.148438 21.441406 163.304688 19.894531 C 162.257812 19.074219 161.390625 18.09375 160.707031 16.953125 C 160.023438 15.8125 159.566406 14.585938 159.332031 13.277344 C 159.121094 11.808594 159.234375 10.367188 159.671875 8.949219 C 160.109375 7.535156 160.832031 6.277344 161.832031 5.1875 C 162.921875 4.007812 164.167969 3.027344 165.570312 2.246094 C 165.804688 2.171875 166.011719 2.054688 166.011719 2.007812 C 166.011719 1.964844 166.011719 1.90625 166.171875 1.90625 C 166.378906 1.863281 166.578125 1.789062 166.761719 1.683594 C 169.136719 0.738281 171.585938 0.453125 174.117188 0.832031 C 174.382812 0.917969 174.65625 0.957031 174.9375 0.949219 C 175.203125 0.953125 175.453125 1.011719 175.6875 1.125 L 177.160156 1.683594 C 178.863281 2.441406 180.398438 3.457031 181.765625 4.730469 C 183.164062 6.1875 184.09375 7.898438 184.558594 9.863281 C 184.726562 10.800781 184.761719 11.742188 184.667969 12.6875 C 184.574219 13.636719 184.351562 14.550781 184.003906 15.4375 C 183.65625 16.320312 183.195312 17.144531 182.621094 17.902344 C 182.042969 18.65625 181.375 19.324219 180.617188 19.894531 C 178.859375 21.257812 176.898438 22.191406 174.734375 22.691406 C 173.058594 22.984375 171.375 23.023438 169.6875 22.808594 Z M 173.894531 21.367188 C 176.585938 20.367188 177.691406 17.644531 177.675781 11.980469 C 177.660156 6.320312 176.542969 3.273438 173.925781 2.363281 C 172.699219 2.066406 171.472656 2.066406 170.246094 2.363281 C 170.070312 2.464844 169.878906 2.523438 169.671875 2.539062 C 168.816406 2.910156 168.132812 3.484375 167.613281 4.257812 C 166.460938 6.75 165.96875 9.363281 166.144531 12.097656 C 166.128906 14.042969 166.351562 15.960938 166.804688 17.851562 C 166.921875 18.328125 167.101562 18.777344 167.34375 19.199219 C 167.589844 19.625 167.886719 20.007812 168.238281 20.34375 C 168.59375 20.683594 168.988281 20.964844 169.421875 21.191406 C 169.855469 21.417969 170.3125 21.578125 170.792969 21.675781 C 171.855469 21.789062 172.886719 21.667969 173.894531 21.308594 Z M 1.578125 22.425781 C 1.457031 22.386719 1.355469 22.324219 1.269531 22.234375 C 1.070312 21.875 1.097656 21.53125 1.339844 21.203125 C 1.871094 21.09375 2.40625 21.058594 2.945312 21.101562 C 3.476562 21.117188 4.007812 21.089844 4.53125 21.011719 C 4.753906 20.910156 4.796875 2.980469 4.53125 2.699219 C 4.269531 2.421875 4.003906 2.523438 2.945312 2.523438 C 2.390625 2.535156 1.84375 2.496094 1.296875 2.40625 C 1.078125 2.304688 1.03125 1.613281 1.296875 1.363281 C 3.554688 1.148438 5.816406 1.109375 8.078125 1.242188 L 14.757812 1.242188 L 14.757812 1.816406 C 14.757812 2.40625 14.757812 2.40625 14.242188 2.480469 C 13.671875 2.527344 13.105469 2.527344 12.535156 2.480469 C 12.09375 2.425781 11.65625 2.449219 11.226562 2.554688 C 11.035156 2.699219 10.992188 21 11.226562 21.011719 C 12.378906 21.136719 13.527344 21.09375 14.667969 20.882812 C 15.789062 20.773438 16.8125 20.390625 17.726562 19.734375 C 18.507812 19.214844 19.113281 18.539062 19.542969 17.703125 C 19.96875 16.867188 20.164062 15.980469 20.125 15.042969 C 20.125 14.144531 20.285156 13.980469 20.976562 13.980469 C 21.667969 13.980469 21.785156 13.554688 21.699219 20.292969 L 21.699219 22.351562 L 11.753906 22.351562 C 6.285156 22.351562 1.722656 22.351562 1.621094 22.351562 Z M 23.640625 22.425781 C 23.230469 22.425781 23.183594 22.308594 23.140625 21.792969 L 23.140625 21.21875 L 23.933594 21.21875 C 25.40625 21.101562 26.332031 20.335938 27.332031 18.203125 C 28.199219 16.363281 28.90625 14.894531 29.199219 14.335938 C 29.363281 14.042969 29.597656 13.570312 29.730469 13.289062 L 32.261719 7.863281 C 32.6875 6.980469 33.140625 6.082031 33.246094 5.878906 C 33.335938 5.726562 33.410156 5.570312 33.464844 5.40625 C 33.566406 5.15625 33.683594 4.917969 33.820312 4.6875 C 34.058594 4.257812 34.273438 3.816406 34.464844 3.363281 C 34.628906 2.996094 34.90625 2.390625 35.113281 2.039062 L 35.464844 1.390625 L 36.703125 1.390625 C 38.027344 1.390625 38.085938 1.390625 38.4375 2.140625 C 38.539062 2.375 38.789062 2.847656 38.980469 3.1875 C 39.171875 3.523438 39.585938 4.332031 39.894531 4.964844 C 40.203125 5.597656 40.527344 6.261719 40.601562 6.4375 C 40.671875 6.613281 40.96875 7.128906 41.234375 7.671875 C 41.496094 8.214844 41.804688 8.789062 41.925781 8.964844 C 42.042969 9.144531 42.617188 10.246094 43.21875 11.421875 C 45.792969 16.511719 47.632812 19.894531 47.835938 20.25 C 47.953125 20.402344 48.027344 20.574219 48.058594 20.761719 C 48.058594 21.101562 48.617188 21.21875 49.882812 21.191406 L 51.085938 21.191406 L 51.085938 22.410156 L 50.234375 22.410156 C 49.765625 22.410156 46.75 22.410156 43.527344 22.410156 L 37.644531 22.410156 L 37.539062 22.117188 C 37.496094 21.914062 37.496094 21.714844 37.539062 21.511719 C 37.628906 21.234375 37.730469 21.203125 39.101562 21.132812 C 39.605469 21.140625 40.09375 21.0625 40.570312 20.894531 C 40.046875 19.417969 39.371094 18.015625 38.539062 16.6875 C 37.074219 16.472656 35.605469 16.417969 34.128906 16.527344 C 29.214844 16.527344 29.496094 16.527344 28.9375 17.820312 C 28.746094 18.296875 28.53125 18.757812 28.289062 19.203125 C 28.070312 19.519531 28.003906 19.863281 28.097656 20.234375 C 28.230469 20.941406 28.65625 21.132812 30.066406 21.144531 L 31.171875 21.144531 L 31.171875 21.734375 C 31.171875 22.132812 31.171875 22.335938 31.007812 22.367188 C 30.847656 22.394531 24.050781 22.511719 23.492188 22.367188 Z M 37.730469 14.984375 C 37.820312 14.863281 37.730469 14.421875 37.261719 13.71875 C 36.789062 13.011719 36.1875 11.613281 35.613281 10.394531 C 35.039062 9.171875 34.480469 8.113281 34.40625 8.023438 C 34.335938 7.9375 33.863281 7.863281 33.671875 8.332031 C 33.480469 8.804688 31.863281 12.113281 31.570312 12.613281 C 31.132812 13.3125 30.796875 14.058594 30.570312 14.851562 C 30.5625 15.003906 30.625 15.117188 30.757812 15.1875 C 30.863281 15.1875 32.453125 15.1875 34.273438 15.1875 C 37.011719 15.1875 37.628906 15.113281 37.730469 14.953125 Z M 90.066406 22.335938 C 89.957031 22.160156 89.902344 21.96875 89.902344 21.761719 C 89.902344 21.554688 89.957031 21.363281 90.066406 21.191406 C 90.328125 21.066406 90.601562 21.011719 90.890625 21.027344 C 91.65625 21.023438 92.316406 20.757812 92.875 20.234375 C 93.273438 19.851562 93.433594 19.558594 94.554688 17.292969 C 94.785156 16.78125 95.046875 16.292969 95.347656 15.820312 C 95.433594 15.71875 95.480469 15.601562 95.480469 15.46875 C 95.488281 15.3125 95.539062 15.167969 95.628906 15.042969 C 96.203125 14.03125 96.722656 12.988281 97.1875 11.921875 C 97.554688 11.144531 97.980469 10.277344 98.128906 9.996094 C 98.242188 9.804688 98.34375 9.601562 98.421875 9.394531 C 98.421875 9.394531 98.863281 8.4375 99.378906 7.378906 C 100.554688 5.007812 100.496094 5.113281 100.964844 4.214844 C 101.1875 3.816406 101.585938 2.996094 101.847656 2.40625 L 102.347656 1.316406 L 103.628906 1.316406 C 104.980469 1.316406 105.101562 1.316406 105.335938 1.933594 C 105.457031 2.210938 105.59375 2.480469 105.746094 2.746094 C 105.894531 3.007812 106.484375 4.128906 107.027344 5.199219 C 107.570312 6.273438 108.21875 7.539062 108.496094 7.980469 C 109.128906 9.171875 109.117188 9.15625 109.878906 10.6875 C 110.277344 11.46875 110.660156 12.160156 110.75 12.347656 L 111.191406 13.230469 C 111.367188 13.585938 111.628906 14.113281 111.792969 14.410156 C 111.953125 14.703125 112.25 15.277344 112.453125 15.6875 C 112.660156 16.101562 112.894531 16.585938 113.011719 16.792969 L 113.851562 18.394531 C 114.191406 19.070312 114.585938 19.867188 114.703125 20.042969 C 114.820312 20.21875 114.898438 20.410156 114.941406 20.617188 C 114.941406 20.96875 115.585938 21.160156 116.808594 21.132812 L 117.96875 21.132812 L 117.96875 22.425781 L 104.527344 22.425781 L 104.527344 21.953125 C 104.527344 21.234375 104.6875 21.117188 105.996094 21.175781 C 107.792969 21.25 107.894531 21.175781 107.320312 20.070312 C 106.910156 19.320312 106.804688 19.117188 106.46875 18.425781 C 106.21875 17.875 105.941406 17.339844 105.628906 16.820312 C 105.527344 16.660156 104.835938 16.628906 101.214844 16.601562 C 96.4375 16.601562 96.449219 16.601562 96.246094 17.367188 C 96.144531 17.667969 96.011719 17.957031 95.847656 18.234375 C 94.964844 19.703125 94.921875 20.542969 95.671875 21.027344 C 96.023438 21.25 96.230469 21.277344 96.964844 21.21875 C 97.324219 21.164062 97.679688 21.164062 98.039062 21.21875 C 98.261719 21.320312 98.273438 22.175781 98.039062 22.351562 C 95.386719 22.5 92.734375 22.5 90.082031 22.351562 Z M 104.644531 14.984375 C 104.484375 14.355469 104.238281 13.761719 103.910156 13.203125 C 103.613281 12.675781 103.347656 12.128906 103.113281 11.570312 C 103.0625 11.398438 102.988281 11.234375 102.894531 11.085938 L 101.96875 9.246094 C 101.765625 8.738281 101.488281 8.277344 101.128906 7.863281 C 100.683594 8.273438 100.355469 8.765625 100.144531 9.335938 C 100.09375 9.496094 100.019531 9.648438 99.921875 9.789062 C 99.804688 9.996094 99.171875 11.261719 98.453125 12.539062 C 97.496094 14.46875 97.304688 14.953125 97.449219 15.101562 C 97.597656 15.246094 98.214844 15.277344 101.070312 15.246094 C 104.46875 15.246094 104.511719 15.246094 104.554688 14.9375 Z M 64.445312 22.117188 C 64.40625 21.902344 64.40625 21.683594 64.445312 21.46875 C 64.445312 21.117188 64.515625 21.117188 65.445312 21.101562 C 66.371094 21.085938 67.0625 20.851562 67.472656 20.128906 C 67.738281 19.675781 67.753906 19.117188 67.753906 11.996094 L 67.753906 4.347656 L 67.414062 3.816406 C 66.921875 3.117188 66.25 2.710938 65.398438 2.597656 C 65.136719 2.570312 64.878906 2.507812 64.636719 2.40625 C 64.429688 2.289062 64.386719 1.566406 64.636719 1.332031 C 66.273438 1.125 67.914062 1.078125 69.5625 1.183594 L 74.359375 1.183594 L 74.871094 1.65625 C 75.253906 2.015625 75.613281 2.398438 75.945312 2.804688 C 76.523438 3.570312 77.148438 4.300781 77.8125 4.996094 C 78.003906 5.15625 79.019531 6.320312 79.285156 6.730469 L 79.84375 7.363281 C 80.066406 7.597656 80.769531 8.394531 81.402344 9.128906 L 83.007812 10.996094 C 83.269531 11.289062 83.609375 11.671875 83.773438 11.878906 C 84.949219 13.351562 85.242188 13.527344 85.375 13.527344 C 85.699219 10.152344 85.699219 6.78125 85.375 3.40625 C 85.039062 3.078125 84.652344 2.832031 84.210938 2.675781 C 83.765625 2.519531 83.3125 2.464844 82.84375 2.507812 L 81.992188 2.507812 L 81.992188 1.214844 L 90.082031 1.214844 C 90.171875 1.214844 90.242188 1.496094 90.242188 1.832031 C 90.242188 2.480469 90.097656 2.597656 89.449219 2.507812 C 88.59375 2.535156 87.863281 2.847656 87.257812 3.449219 L 86.90625 3.847656 L 86.90625 22.410156 L 85.667969 22.410156 C 85.179688 22.441406 84.6875 22.441406 84.199219 22.410156 C 83.652344 21.976562 83.160156 21.484375 82.726562 20.941406 L 81.09375 19.070312 C 80.433594 18.367188 79.816406 17.628906 79.242188 16.851562 C 79.09375 16.632812 78.921875 16.4375 78.726562 16.261719 C 78.433594 15.984375 77.652344 15.113281 76.992188 14.335938 C 76.328125 13.554688 75.742188 12.863281 75.695312 12.863281 C 75.652344 12.863281 75.179688 12.304688 74.667969 11.6875 C 72.902344 9.597656 70.652344 7.011719 70.546875 6.953125 C 70.410156 6.816406 70.289062 6.667969 70.179688 6.511719 C 70.015625 6.269531 69.828125 6.042969 69.621094 5.832031 C 69.355469 5.570312 69.28125 5.554688 69.152344 5.714844 C 68.972656 8.074219 68.917969 10.4375 68.988281 12.804688 C 68.988281 19.070312 68.988281 19.75 69.253906 20.160156 C 69.519531 20.570312 70.195312 21.101562 71.460938 21.144531 C 72.726562 21.191406 72.726562 21.292969 72.652344 21.792969 C 72.652344 21.96875 72.652344 22.191406 72.652344 22.261719 C 71.308594 22.496094 69.960938 22.550781 68.605469 22.425781 L 64.53125 22.425781 L 64.445312 22.132812 Z M 142.992188 22.117188 C 142.8125 21.761719 142.992188 21.191406 143.328125 21.175781 L 144.652344 21.175781 C 146.609375 21.175781 146.402344 22.308594 146.402344 11.804688 C 146.402344 1.304688 146.652344 2.4375 144.386719 2.4375 C 143.253906 2.4375 142.917969 2.4375 142.917969 2.246094 C 142.925781 2.132812 142.925781 2.019531 142.917969 1.90625 C 142.886719 1.773438 142.886719 1.640625 142.917969 1.507812 C 143.019531 1.273438 143.195312 1.257812 149.492188 1.199219 L 155.980469 1.199219 L 155.980469 1.464844 C 156.011719 1.664062 156.011719 1.867188 155.980469 2.066406 L 155.980469 2.4375 L 154.507812 2.4375 C 153.949219 2.433594 153.394531 2.492188 152.847656 2.613281 C 152.757812 2.699219 152.667969 6.1875 152.65625 11.761719 C 152.65625 19.027344 152.65625 20.820312 152.800781 20.96875 C 152.949219 21.117188 153.375 21.175781 154.507812 21.203125 L 155.980469 21.203125 L 155.980469 22.324219 L 143.003906 22.324219 L 142.859375 22.011719 Z M 186.898438 22.335938 C 186.703125 21.96875 186.703125 21.601562 186.898438 21.234375 C 187.199219 21.167969 187.503906 21.132812 187.808594 21.132812 C 188.222656 21.117188 188.617188 21.03125 189 20.882812 C 190 20.410156 189.972656 20.628906 189.988281 12.054688 C 189.988281 7.554688 189.988281 4.171875 189.855469 3.996094 C 189.589844 3.570312 189.246094 3.226562 188.816406 2.96875 C 188.390625 2.707031 187.925781 2.558594 187.425781 2.523438 C 186.972656 2.523438 186.957031 2.523438 186.957031 1.832031 L 186.957031 1.15625 L 191.855469 1.15625 C 196.265625 1.15625 196.753906 1.15625 196.945312 1.390625 C 197.460938 1.933594 200.386719 5.332031 200.929688 6.011719 C 201.269531 6.4375 201.695312 6.90625 201.855469 7.070312 C 202.019531 7.230469 202.738281 8.011719 203.417969 8.820312 C 204.09375 9.628906 205.285156 10.996094 206.035156 11.894531 C 206.496094 12.5 207.03125 13.035156 207.636719 13.496094 C 207.8125 13.496094 207.84375 12.730469 207.84375 8.597656 C 207.84375 4.023438 207.84375 3.671875 207.550781 3.316406 C 206.925781 2.71875 206.179688 2.429688 205.3125 2.449219 C 204.996094 2.445312 204.6875 2.390625 204.386719 2.289062 C 204.207031 1.953125 204.207031 1.621094 204.386719 1.289062 C 205.753906 1.15625 207.121094 1.117188 208.492188 1.171875 C 212.902344 1.171875 212.699219 1.171875 212.699219 1.90625 C 212.699219 2.273438 212.34375 2.597656 212.09375 2.464844 C 211.3125 2.445312 210.597656 2.652344 209.945312 3.082031 L 209.34375 3.449219 L 209.253906 12.863281 C 209.253906 18.042969 209.152344 22.292969 209.136719 22.324219 C 209.125 22.351562 208.519531 22.324219 207.800781 22.324219 C 206.503906 22.324219 206.503906 22.324219 206.09375 21.894531 C 205.929688 21.746094 205.800781 21.574219 205.695312 21.382812 C 205.527344 21.140625 205.328125 20.925781 205.109375 20.734375 C 204.425781 20.050781 203.792969 19.328125 203.210938 18.558594 C 203.210938 18.558594 202.753906 18.011719 202.296875 17.511719 L 200.972656 16.042969 C 199.886719 14.734375 198.03125 12.511719 197.179688 11.628906 C 196.882812 11.328125 196.613281 11.003906 196.371094 10.65625 C 196.246094 10.464844 196.097656 10.289062 195.929688 10.128906 C 195.445312 9.644531 193.472656 7.363281 192.722656 6.4375 C 191.972656 5.511719 191.738281 5.363281 191.621094 5.449219 C 191.5 5.539062 191.546875 8.746094 191.546875 12.6875 C 191.546875 20.792969 191.546875 20.425781 192.738281 20.867188 C 193.214844 21.023438 193.707031 21.089844 194.207031 21.058594 L 195.015625 21.058594 L 195.015625 22.292969 L 190.972656 22.292969 C 188.738281 22.292969 186.867188 22.292969 186.808594 22.292969 Z M 186.898438 22.335938 "></path></g></g><mask id="d1c8fbe040"><g filter="url(#a22f17d21a)"><rect x="0" width="231.75" y="0" height="58.499998" style="fill:#000000;fill-opacity:0.3;stroke:none;"></rect></g></mask></g></g></svg>